<svg xmlns="http://www.w3.org/2000/svg" viewBox="0 0 169.88 128.76"><defs><style>.cls-1{font-size:31.54px;fill:#ec6433;font-family:Montserrat-Regular, Montserrat;letter-spacing:0.18em;}.cls-2{letter-spacing:0.16em;}.cls-3{letter-spacing:0.18em;}.cls-4{fill:none;stroke:#ec6433;stroke-linecap:round;stroke-linejoin:round;stroke-width:3px;}</style></defs><g id="Layer_2" data-name="Layer 2"><g id="Object"><text class="cls-1" transform="translate(0 120.59)">Mos<tspan class="cls-2" x="82.31" y="0">k</tspan><tspan class="cls-3" x="106.27" y="0">eel</tspan></text><path class="cls-4" d="M56.71,52.05C65.46,62.52,76.72,66.4,85,68.9s17.36,14.79,17.36,14.79h0S91.89,72.56,90.89,64s-2.8-20.35-11.56-30.83h0c-8.75-10.47-20-14.35-28.28-16.85S33.69,1.5,33.69,1.5h0S44.15,12.63,45.15,21.22,48,41.57,56.71,52.05"/><path class="cls-4" d="M110.78,52.05C102,62.52,90.77,66.4,82.5,68.9S65.13,83.69,65.13,83.69h0S75.6,72.56,76.59,64,79.4,43.62,88.15,33.14h0c8.75-10.47,20-14.35,28.28-16.85S133.8,1.5,133.8,1.5h0s-10.47,11.13-11.47,19.72-2.8,20.35-11.55,30.83"/></g></g></svg>